<?xml version="1.0" encoding="UTF-8"?>
<svg id="Laag_1" data-name="Laag 1" xmlns="http://www.w3.org/2000/svg" viewBox="0 0 258.82 46.71">
  <defs>
    <style>
      .cls-1 {
        fill: #fff;
        stroke-width: 0px;
      }
    </style>
  </defs>
  <path class="cls-1" d="m178.44,25.85c-.95-2.94-1.75-5.44-2.7-8.38-.38.85-.62,1.26-.77,1.71-1.4,4.19-2.85,8.37-4.14,12.59-.38,1.25-.97,1.65-2.23,1.56-1.39-.1-2.79-.02-4.4-.02.12-.59.17-1.02.3-1.42,2.5-7.69,5.02-15.36,7.48-23.06.36-1.13.86-1.61,2.1-1.5,1.63.14,3.69-.48,4.78.3,1.08.77,1.08,2.94,1.76,4.4,1.24,2.67,1.08,5.22-.09,7.86-.79,1.78-1.31,3.68-2.1,5.96Z"/>
  <path class="cls-1" d="m10.07,33.11c.84-2.69,1.52-4.95,2.26-7.19,1.85-5.63,3.74-11.24,5.55-16.88.34-1.06.87-1.47,1.99-1.5,4.94-.15,4.82-.14,6.48,4.51.96,2.67,1.07,5.13-.11,7.73-.76,1.67-1.23,3.47-1.97,5.64-.96-2.79-1.76-5.14-2.75-8.02-.47,1.08-.75,1.63-.95,2.2-1.38,4.01-2.79,8.02-4.1,12.05-.35,1.07-.87,1.54-1.99,1.49-1.36-.06-2.73-.01-4.42-.01Z"/>
  <path class="cls-1" d="m245.55,33.35V13.35h6.38c.1.65.19,1.21.25,1.63,2.12-.8,4.23-1.59,6.64-2.5v6.41c-.14.05-.3.16-.46.15-4.15-.29-6.1,1.62-5.94,5.99.08,2.27-.02,4.54.03,6.81.03,1.09-.28,1.59-1.48,1.54-1.74-.08-3.5-.02-5.43-.02Z"/>
  <path class="cls-1" d="m197.05,7.35c-1.05,3.21-1.99,6.13-2.95,9.04-1.68,5.13-3.4,10.25-5.03,15.39-.35,1.11-.79,1.64-2.05,1.56-1.68-.11-3.37-.03-5.34-.03.61-1.85,1.15-3.48,1.69-5.1,2.13-6.45,4.28-12.9,6.35-19.37.36-1.12.84-1.61,2.08-1.52,1.62.12,3.26.03,5.24.03Z"/>
  <path class="cls-1" d="m92.45,13.32c1.58,0,2.86.07,4.13-.02,1.5-.1,2.74,0,2.37,2.44,2.09-1.83,4.13-2.78,6.67-2.58v5.59c-.26.09-.42.19-.59.2-4.84.47-5.74,1.47-5.74,6.36,0,2.21-.04,4.42,0,6.63.02.98-.36,1.41-1.33,1.33-.06,0-.12,0-.18,0q-5.34.22-5.35-5.07c0-4.88,0-9.75,0-14.89Z"/>
  <path class="cls-1" d="m42.7,7.42c-.63,1.94-1.15,3.57-1.69,5.21-2.08,6.35-4.19,12.68-6.21,19.05-.35,1.09-.9,1.5-2,1.46-1.6-.06-3.21-.01-5.04-.01.25-.93.36-1.48.54-2.02,2.4-7.28,4.85-14.54,7.19-21.83.45-1.4,1.07-2.01,2.58-1.88,1.43.13,2.88.03,4.64.03Z"/>
  <path class="cls-1" d="m160.38,26.85c-2.1-6.41-4.19-12.83-6.37-19.49,2.38,0,4.47-.05,6.55.05.4.02.97.58,1.12,1.01.81,2.3,1.54,4.62,2.23,6.95.14.47.13,1.06-.01,1.53-1.02,3.32-2.09,6.63-3.15,9.94-.12,0-.25.01-.37.02Z"/>
  <path class="cls-1" d="m6.11,26.4C4.12,20.26,2.13,14.11,0,7.52c2.4,0,4.56-.05,6.72.06.3.01.67.74.82,1.2.69,2.09,1.35,4.19,1.96,6.31.15.54.26,1.19.1,1.7-.98,3.21-2.03,6.4-3.06,9.59l-.42.03Z"/>
  <path class="cls-1" d="m240.51,20.23c-.25-3.6-2.5-5.87-6.09-6.79-3.85-.99-7.54-.42-11.19.89-.57.2-1.07.59-1.69.94.81,1.62,1.53,3.05,2.25,4.48,5.35-2.57,9.13-1.95,9.88,1.84-1.35,0-2.57-.05-3.79.01-1.46.08-2.93.13-4.35.43-3.09.64-4.83,2.63-4.87,5.33-.05,3.04,1.69,5.27,4.82,6,3.15.74,6.14.53,8.62-2.26.12.85.21,1.46.31,2.13h6.17c0-4.41.22-8.72-.07-12.99Zm-11.42,8.95c-.71-.24-1.59-1.23-1.62-1.9-.03-.65.84-1.75,1.51-1.93,1.43-.38,2.98-.28,4.59-.39.34,3.17-1.8,5.1-4.48,4.21Z"/>
  <path class="cls-1" d="m217.17,17.57c-2.93-4.44-9.4-5.98-14.55-3.4-3.73,1.87-5.72,4.95-5.72,9.09,0,4.21,2,7.34,5.88,9.14,3.37,1.56,6.91,1.73,10.42.58,1.44-.47,2.72-1.41,4.37-2.3-1.57-1.43-2.8-2.55-4.04-3.68-4.28,2.58-8.92,1.68-9.37-2h14.29c.7-2.31.16-5.23-1.29-7.43Zm-13.25,3.77c.47-2.32,1.97-3.58,4.1-3.59,2.11,0,3.61,1.24,4.15,3.59h-8.25Z"/>
  <path class="cls-1" d="m86.39,16.62c-3.12-3.65-9-4.74-13.66-2.41-3.72,1.86-5.68,4.85-5.68,9.08,0,4.24,1.95,7.28,5.75,8.98,1.72.77,3.7,1.24,5.58,1.3,3.17.09,6.29-.46,8.75-3.09-.61-.65-1.17-1.22-1.69-1.83-.52-.61-1-1.27-1.42-1.81-4.96,2.77-9.13,1.97-9.96-1.66.17-.1.22-.16.27-.16,4.27-.02,8.54-.07,12.81-.04,1.2.01,1.7-.36,1.65-1.59-.1-2.51-.72-4.8-2.39-6.76Zm-12.57,4.76c.57-2.48,2.18-3.78,4.34-3.7,2.16.08,3.66,1.4,4.02,3.7h-8.36Z"/>
  <path class="cls-1" d="m62.58,24.98c1.63.04,1.98-.61,1.94-2.05-.19-6.69-6.26-11.08-13.35-9.61-4.2.87-7.53,4.08-8.2,7.9-.78,4.45.93,8.5,4.74,10.59,4.15,2.28,8.48,2.38,12.8.43.85-.38,1.57-1.08,2.46-1.7-.72-.76-1.26-1.28-1.74-1.86-.52-.62-.97-1.28-1.36-1.81-5.17,2.74-9.25,1.94-10.04-1.93,4.36,0,8.56-.07,12.76.03Zm-12.82-3.52c.07-2.2,1.57-3.65,3.8-3.8,2.25-.15,4.03,1.26,4.44,3.8h-8.24Z"/>
  <path class="cls-1" d="m140.51,9.01c-2.95-1.6-4.5-1.45-7.11.86-1.1-1.08-2.43-2.06-3.26-3.35-.4-.62-.49-1.18-1.33-1.47-1.21-.41-1.7-1.44-1.28-2.68.38-1.15,1.33-1.63,2.5-1.41,1.28.23,1.89,1.08,1.81,2.38-.03.46-.11.91-.17,1.37.25.03.5.05.76.08.05-.92.35-1.91.1-2.75-.42-1.42-1.63-2.12-3.13-2.03-1.42.09-2.42.9-2.8,2.28-.4,1.47.13,2.73,1.5,3.38,1.6.76,1.2,1.42.12,2.22-.84.62-1.68,1.24-2.71,2-.87-1.92-2.43-2.12-4.14-1.83-.73.13-1.48.34-2.13.69-3.34,1.77-6.65,3.6-10.1,5.48,1.59,2.51,3.1,4.78,4.48,7.13.67,1.13,1.37,1.69,3,.63,0,1.04,0,1.67,0,2.29,0,6.35.06,12.69-.04,19.03-.03,1.64.57,2.18,2.11,2.45,7.41,1.29,14.78,1.27,22.18-.05,1.35-.24,1.82-.78,1.8-2.17-.07-6.46-.04-12.92-.04-19.38,0-.6.06-1.21.08-1.58.92-.12,1.96.05,2.23-.33,1.79-2.56,3.41-5.22,5.18-7.99-3.36-1.83-6.48-3.54-9.6-5.23Zm-7.52,1.68c-1.12,1.36-2.18,2.64-3.39,4.11-1.18-1.45-2.23-2.73-3.27-4,2.48-3.16,3.46-3.19,6.65-.11Zm11.31,11.01c-.81-.32-1.45-.57-2.34-.92-.07.81-.18,1.47-.18,2.12-.03,6.64-.08,13.28-.01,19.91.02,1.42-.51,1.93-1.81,2.14-6.94,1.12-13.87,1.1-20.81-.02-1.25-.2-1.75-.7-1.73-2.04.07-6.64.03-13.28.03-19.91v-1.8c-.29-.14-.44-.26-.49-.22-1.67,1.08-2.54.27-3.34-1.22-.92-1.73-2.06-3.35-3.22-5.2,3.5-1.88,6.77-3.81,10.2-5.4,1.39-.64,3-.51,4.16,1.13,1.41,1.99,3.09,3.78,4.84,5.89,1.7-2.03,3.41-3.84,4.84-5.86,1.21-1.72,2.85-1.79,4.31-1.11,3.38,1.57,6.6,3.47,10.1,5.36-1.62,2.54-3.08,4.84-4.55,7.16Z"/>
</svg>